<?xml version="1.0" encoding="utf-8"?>
<!-- Generator: Adobe Illustrator 24.0.2, SVG Export Plug-In . SVG Version: 6.00 Build 0)  -->
<svg version="1.1" id="Layer_1" xmlns="http://www.w3.org/2000/svg" xmlns:xlink="http://www.w3.org/1999/xlink" x="0px" y="0px"
	 viewBox="0 0 32 32" style="enable-background:new 0 0 32 32;" xml:space="preserve">
<style type="text/css">
	.st0{fill:none;stroke:#FFFFFF;stroke-width:3;stroke-linecap:round;stroke-linejoin:round;}
</style>
<path class="st0" d="M16,12v5.3 M16,22.7L16,22.7 M14.2,5.2l-11,18.9c-0.6,1.1-0.9,1.6-0.9,2c0,0.4,0.2,0.7,0.5,0.9
	c0.4,0.3,1,0.3,2.2,0.3H27c1.2,0,1.8,0,2.2-0.3c0.3-0.2,0.5-0.6,0.5-0.9c0-0.4-0.3-1-0.9-2l-11-18.9c-0.6-1-0.9-1.6-1.3-1.7
	c-0.3-0.2-0.7-0.2-1.1,0C15.1,3.6,14.8,4.1,14.2,5.2z"/>
</svg>
