<?xml version="1.0" encoding="utf-8"?>
<!-- Generator: Adobe Illustrator 24.0.2, SVG Export Plug-In . SVG Version: 6.00 Build 0)  -->
<svg version="1.1" id="Layer_1" xmlns="http://www.w3.org/2000/svg" xmlns:xlink="http://www.w3.org/1999/xlink" x="0px" y="0px"
	 viewBox="0 0 32 32" style="enable-background:new 0 0 32 32;" xml:space="preserve">
<style type="text/css">
	.st0{fill:none;stroke:#FFFFFF;stroke-width:2;stroke-linecap:round;stroke-linejoin:round;}
</style>
<path class="st0" d="M16,16l-5.7-4.7C9.5,10.5,9,10.2,8.7,9.8C8.5,9.4,8.3,9,8.1,8.5C8,8,8,7.4,8,6.3V2.7 M16,16l5.7-4.7
	c0.8-0.7,1.3-1.1,1.6-1.5c0.3-0.4,0.5-0.8,0.6-1.3C24,8,24,7.4,24,6.3V2.7 M16,16l-5.7,4.7c-0.8,0.7-1.3,1.1-1.6,1.5
	c-0.3,0.4-0.5,0.8-0.6,1.3C8,24,8,24.6,8,25.7v3.7 M16,16l5.7,4.7c0.8,0.7,1.3,1.1,1.6,1.5c0.3,0.4,0.5,0.8,0.6,1.3
	C24,24,24,24.6,24,25.7v3.7 M5.3,2.7h21.3 M5.3,29.3h21.3"/>
</svg>
